<?xml version="1.0" standalone="no"?>
<!DOCTYPE svg PUBLIC "-//W3C//DTD SVG 20010904//EN"
 "http://www.w3.org/TR/2001/REC-SVG-20010904/DTD/svg10.dtd">
<svg version="1.0" xmlns="http://www.w3.org/2000/svg"
 width="900.000000pt" height="506.000000pt" viewBox="0 0 900.000000 506.000000"
 preserveAspectRatio="xMidYMid meet">

<g transform="translate(0.000000,506.000000) scale(0.100000,-0.100000)"
fill="#000000" stroke="none">
<path d="M0 4120 l0 -940 38 -16 c61 -26 357 -113 507 -149 397 -97 967 -181
1480 -219 488 -37 576 -40 1105 -40 419 0 601 4 785 18 296 21 552 49 710 77
66 11 150 25 186 29 36 5 84 13 105 18 22 6 59 13 84 16 25 4 52 11 60 17 11
7 -25 9 -122 6 -76 -2 -138 -1 -138 4 0 4 10 10 23 12 12 2 2 5 -23 6 -26 0
-50 5 -55 10 -6 5 -71 17 -145 26 -74 9 -137 19 -139 21 -2 2 20 4 50 4 38 0
50 3 39 10 -11 7 4 10 50 10 84 0 112 16 44 25 -65 9 -76 13 -36 14 17 1 32 6
32 11 0 6 12 10 28 11 21 1 17 4 -18 13 -44 11 -41 11 70 18 186 10 374 30
385 39 5 5 -64 9 -165 10 -177 0 -214 2 -305 15 -47 7 -48 8 -20 15 25 5 21 7
-25 9 -44 2 -50 4 -30 10 14 4 50 9 80 10 30 1 47 4 37 7 -14 4 -16 8 -6 19
10 12 2 14 -47 14 -79 0 -110 19 -34 21 l55 1 -60 13 -60 12 110 3 c61 1 142
5 180 9 69 6 68 6 -54 14 -68 4 -152 7 -185 8 -55 1 -58 2 -28 10 17 5 83 14
145 19 61 5 130 13 152 18 35 9 28 10 -60 12 -124 3 -110 7 75 21 158 13 933
21 860 9 l-45 -7 40 -3 c22 -1 54 -5 70 -9 32 -7 -105 -20 -245 -22 -123 -2
-34 -16 115 -19 72 -1 139 -5 150 -9 19 -8 19 -8 -2 -21 -11 -8 -19 -19 -16
-25 6 -16 -29 -25 -100 -25 -36 0 -56 -4 -52 -10 4 -6 -16 -10 -54 -10 -33 0
-63 -4 -66 -10 -3 -5 0 -7 7 -5 8 3 44 -5 81 -19 37 -13 75 -22 86 -19 10 3
21 1 24 -4 3 -5 -37 -20 -89 -32 -89 -22 -122 -41 -69 -41 13 0 47 -5 75 -11
42 -9 50 -14 50 -33 0 -15 -9 -27 -26 -34 -14 -7 -23 -16 -20 -21 3 -5 -10
-12 -30 -16 -41 -7 -35 -21 11 -28 17 -2 -26 -5 -95 -6 -80 -2 -116 -6 -100
-11 14 -4 42 -8 63 -9 50 -1 48 -21 -3 -21 -22 0 -40 -5 -40 -11 0 -5 5 -7 10
-4 6 4 16 2 23 -3 18 -15 111 -32 172 -32 30 0 121 -7 202 -16 120 -13 165
-23 235 -50 111 -43 247 -78 390 -101 161 -26 682 -25 883 0 187 24 508 81
570 102 16 5 17 5 4 -4 -9 -6 -33 -14 -55 -20 -21 -5 -70 -19 -109 -31 -81
-25 -88 -26 -300 -74 -88 -20 -176 -41 -196 -46 -20 -6 -51 -10 -68 -10 -18 0
-41 -5 -51 -10 -11 -6 -80 -12 -155 -14 -155 -4 -182 -14 -187 -68 -3 -35 24
-68 55 -68 9 0 17 -4 19 -9 2 -6 25 -4 55 4 33 9 62 11 80 5 15 -4 24 -9 19
-9 -5 -1 9 -15 30 -32 31 -25 46 -30 71 -26 23 4 35 1 41 -10 7 -11 11 -12 16
-4 4 6 25 11 46 11 29 0 43 -6 55 -22 14 -21 17 -21 25 -6 11 19 78 17 90 -2
6 -9 17 -8 44 5 35 17 37 17 57 -1 15 -14 22 -15 28 -6 5 8 27 11 69 8 34 -2
60 -1 57 4 -3 4 9 13 26 20 16 7 36 25 44 40 7 14 21 32 29 39 13 11 17 11 22
-3 8 -20 22 -11 34 20 10 25 30 33 30 12 0 -6 9 -3 20 7 11 10 20 28 20 40 0
26 18 45 42 45 10 0 18 5 18 11 0 6 13 8 34 5 44 -7 134 32 176 77 17 18 34
35 38 39 24 23 124 117 146 136 16 15 23 29 19 40 -5 14 -3 15 8 5 19 -19 28
-16 22 7 -5 18 -2 19 39 14 37 -5 46 -3 52 11 3 9 4 20 1 25 -6 10 16 73 29
82 16 11 28 10 21 -2 -8 -13 1 -13 26 0 10 6 19 17 19 25 0 9 6 12 16 8 11 -4
15 -2 12 8 -5 16 47 63 62 54 5 -3 7 0 4 8 -4 11 6 19 31 27 22 7 34 17 31 25
-8 23 16 37 35 19 15 -14 19 -13 37 11 12 15 18 34 15 48 -5 21 -4 21 13 -3 9
-14 19 -27 20 -28 1 -2 12 -1 24 3 13 4 19 12 16 21 -3 8 -1 14 5 14 6 0 9 7
5 15 -6 17 9 21 19 5 11 -18 23 -11 18 10 -4 14 0 20 12 20 9 0 19 9 22 20 3
11 9 17 14 14 5 -3 9 343 9 820 l0 826 -469 0 c-397 0 -474 -2 -505 -15 -33
-14 -37 -14 -42 0 -9 22 -55 19 -142 -11 -63 -22 -97 -27 -184 -28 -79 -1
-108 -4 -108 -13 0 -7 -7 -13 -15 -13 -8 0 -15 5 -15 10 0 6 -5 10 -11 10 -5
0 -8 -4 -5 -9 7 -10 -17 -21 -47 -21 -16 0 -18 3 -9 12 9 9 5 15 -18 24 -20 9
-30 20 -30 34 0 18 -5 20 -57 18 -32 -1 -61 -7 -65 -12 -5 -7 -8 -7 -8 2 0 19
-28 14 -50 -8 -23 -23 -34 -24 -150 -9 -47 6 -111 11 -143 11 -31 0 -60 4 -63
9 -3 5 -19 9 -37 9 l-31 0 23 -16 23 -17 -26 -23 c-16 -16 -37 -24 -61 -24
-38 0 -49 -22 -18 -34 14 -6 15 -9 4 -16 -11 -6 -10 -11 7 -21 11 -7 18 -18
16 -24 -3 -6 4 -23 15 -36 l20 -24 1 23 c0 19 5 22 40 22 30 0 40 -4 40 -16 0
-8 4 -12 10 -9 6 3 10 -1 10 -9 0 -9 -6 -17 -12 -17 -7 -1 -18 -2 -24 -3 -15
-1 -64 -53 -64 -67 0 -5 -13 -9 -30 -9 -29 0 -30 -2 -30 -45 0 -25 -4 -45 -10
-45 -5 0 -10 8 -10 18 0 15 -6 17 -37 14 -20 -3 -43 -10 -49 -17 -13 -13 -74
-8 -74 6 0 5 -18 8 -40 7 -22 -2 -40 -6 -40 -10 0 -16 -47 -7 -63 10 -10 10
-17 22 -17 25 0 4 -9 16 -21 28 -17 17 -28 20 -57 14 -21 -4 -42 -11 -49 -16
-13 -12 -63 -1 -63 13 0 5 -17 8 -37 6 -62 -4 -153 12 -153 28 0 10 10 14 33
13 39 -2 144 25 130 34 -36 22 -340 -5 -418 -37 -18 -8 -63 -17 -99 -21 -36
-4 -63 -11 -60 -16 3 -5 -5 -10 -18 -10 -30 -2 90 -26 167 -33 66 -7 157 6
163 23 2 6 18 11 36 11 18 0 37 5 44 12 9 9 12 9 12 0 0 -7 -7 -15 -15 -18
-22 -9 -18 -26 4 -19 26 8 71 -4 68 -19 -1 -7 29 -11 98 -12 129 -2 124 -1
118 -24 -4 -13 -19 -23 -47 -31 -22 -5 -48 -12 -56 -14 -38 -10 -279 -14 -285
-5 -4 6 -56 10 -123 10 -95 0 -122 -3 -144 -18 l-27 -18 27 -30 c15 -16 38
-37 51 -47 l24 -16 -39 4 -39 5 33 -15 c41 -19 439 -30 510 -14 26 6 97 11
158 12 114 0 192 -14 230 -42 18 -14 19 -17 5 -33 -9 -10 -28 -18 -44 -18 -16
0 -37 -5 -48 -10 -22 -12 -26 -40 -5 -40 8 0 22 -8 31 -17 16 -16 16 -17 -1
-30 -11 -8 -45 -13 -86 -13 -57 0 -66 -2 -61 -16 5 -14 32 -15 232 -10 124 3
255 8 289 12 38 4 79 2 100 -4 21 -6 63 -14 96 -17 95 -11 54 -29 -62 -28
-176 1 -422 -9 -417 -18 3 -4 29 -6 58 -3 41 4 48 3 35 -6 -24 -15 -23 -43 2
-65 11 -10 20 -24 20 -32 0 -10 21 -13 90 -13 53 0 90 -4 90 -10 0 -5 18 -10
40 -10 33 0 40 -3 40 -19 0 -16 8 -21 43 -24 l42 -4 -42 -1 c-24 -1 -43 -6
-43 -11 0 -6 19 -11 43 -13 23 -2 -14 -4 -83 -3 -117 0 -226 -1 -395 -4 -38 0
-115 -5 -170 -11 -55 -5 -149 -14 -210 -20 -60 -6 -120 -12 -131 -14 -12 -3
-79 -9 -150 -16 -71 -6 -172 -22 -224 -36 -156 -41 -221 -53 -293 -54 -38 0
-91 -7 -118 -16 -43 -14 -62 -15 -132 -5 -45 6 -123 11 -173 11 -50 0 -106 3
-123 6 -30 6 -31 8 -15 25 8 9 33 20 54 24 36 6 86 33 65 35 -31 3 -78 10
-140 19 -100 15 -315 13 -428 -3 -66 -10 -106 -12 -129 -5 -18 5 -58 10 -88
11 l-55 1 50 7 50 7 -45 2 c-25 1 -56 8 -70 15 -16 10 -42 12 -77 9 -36 -4
-53 -2 -53 6 0 7 -20 11 -52 11 -36 0 -63 7 -83 20 -16 11 -47 20 -67 20 -21
0 -38 5 -38 10 0 6 -18 10 -40 10 -29 0 -40 -4 -40 -15 0 -8 -9 -15 -20 -15
-11 0 -20 7 -20 15 0 13 -10 14 -56 9 -37 -5 -58 -3 -63 4 -8 14 -76 21 -258
29 -79 3 -143 9 -143 14 0 12 -67 12 -88 0 -10 -5 -67 -7 -127 -3 -68 3 -102
8 -90 13 20 8 20 8 0 9 -18 0 -18 2 -3 10 10 6 14 18 11 30 -4 14 1 21 21 26
22 5 26 12 26 44 0 30 -5 40 -21 45 -25 8 -20 29 9 33 33 5 27 20 -14 37 -45
19 -44 19 -44 -5 0 -17 -5 -19 -37 -14 -20 3 -42 13 -49 22 -13 17 -53 20
-135 9 -48 -6 -59 -4 -79 13 l-23 20 21 19 c26 22 27 27 5 35 -9 4 -21 1 -26
-6 -5 -8 -7 -2 -3 20 5 32 5 32 -34 32 -22 0 -40 5 -40 10 0 13 77 13 82 -1 2
-5 11 -7 21 -4 18 8 25 65 7 65 -5 0 -10 7 -10 15 0 8 -4 15 -10 15 -5 0 -10
-9 -10 -20 0 -17 -7 -20 -40 -20 -22 0 -40 -4 -40 -10 0 -5 -7 -10 -15 -10
-17 0 -57 -20 -67 -35 -4 -6 -25 -4 -55 3 -37 10 -61 10 -100 2 -38 -9 -57 -8
-73 0 -14 8 -46 9 -95 5 -68 -7 -74 -6 -85 15 -14 26 -45 23 -45 -5 0 -12 -8
-21 -20 -23 -11 -2 -27 -10 -35 -16 -28 -23 -98 -40 -113 -28 -8 7 -17 9 -20
6 -3 -3 -11 -3 -17 1 -8 5 -5 11 7 21 16 12 16 15 3 24 -12 8 -11 10 6 10 12
0 37 17 58 40 20 22 40 40 46 40 5 0 10 4 10 9 0 4 28 18 62 31 76 27 82 31
66 53 -9 12 -44 21 -123 32 -201 28 -234 36 -228 51 3 8 0 14 -6 14 -6 0 -11
6 -11 14 0 7 -12 16 -27 19 -25 5 -137 28 -200 42 -13 3 -23 12 -23 19 0 8
-16 20 -35 26 -64 21 -38 40 54 40 44 0 62 5 75 19 13 15 14 20 4 24 -7 3 -1
6 15 6 15 1 27 -4 27 -10 0 -8 5 -7 16 1 14 13 76 21 153 20 22 0 41 7 53 20
14 15 32 20 66 20 27 0 57 7 68 15 17 13 -84 14 -848 15 l-868 0 0 -940z
m7330 900 c0 -11 -4 -20 -10 -20 -5 0 -10 9 -10 20 0 11 5 20 10 20 6 0 10 -9
10 -20z m333 -37 c-13 -2 -33 -2 -45 0 -13 2 -3 4 22 4 25 0 35 -2 23 -4z
m-118 -43 c3 -5 -1 -10 -9 -10 -9 0 -16 5 -16 10 0 6 4 10 9 10 6 0 13 -4 16
-10z m-6428 -6 c-3 -3 -12 -4 -19 -1 -8 3 -5 6 6 6 11 1 17 -2 13 -5z m83 -76
c0 -6 -7 -7 -16 -4 -9 3 -27 6 -40 6 -13 0 -24 3 -24 8 0 4 18 6 40 4 22 -2
40 -9 40 -14z m5148 -175 c-10 -2 -26 -2 -35 0 -10 3 -2 5 17 5 19 0 27 -2 18
-5z m262 -173 c0 -11 -63 -24 -82 -17 -8 3 -4 9 12 15 32 14 70 15 70 2z
m-3957 -218 c64 -12 74 -23 51 -55 -31 -40 -111 -55 -259 -48 -94 4 -125 12
-125 28 0 13 3 13 15 3 12 -10 18 -10 30 0 8 7 15 18 15 24 0 6 22 23 48 39
42 24 54 27 112 22 36 -2 87 -9 113 -13z m-573 -76 c0 -8 -5 -18 -11 -22 -19
-11 12 -24 56 -23 22 1 32 3 23 6 -29 7 -20 22 17 29 27 5 41 2 55 -11 14 -12
20 -14 20 -5 0 10 4 10 21 -1 11 -8 20 -18 20 -23 -1 -6 -77 -11 -183 -12
-101 -1 -164 1 -140 3 23 2 42 8 42 14 0 5 -6 9 -12 9 -7 1 -1 8 15 16 15 8
27 19 27 24 0 6 11 10 25 10 15 0 25 -6 25 -14z m4660 -101 c10 -12 10 -15 -4
-15 -9 0 -16 7 -16 15 0 8 2 15 4 15 2 0 9 -7 16 -15z m226 -20 c-16 -16 -86
-21 -86 -6 0 6 19 12 43 14 23 2 46 4 50 5 5 1 2 -5 -7 -13z m341 -1 c-3 -3
-12 -4 -19 -1 -8 3 -5 6 6 6 11 1 17 -2 13 -5z m68 -44 c54 0 63 -3 68 -20 4
-16 0 -20 -21 -21 l-27 0 25 -11 c14 -6 78 -10 143 -9 98 1 117 -1 117 -14 0
-12 -17 -15 -94 -15 -51 0 -118 -5 -147 -10 -111 -22 -131 -24 -214 -21 l-60
1 25 20 c25 19 25 20 3 20 -12 0 -25 5 -28 10 -3 6 -19 10 -34 10 -15 0 -36 7
-47 16 -18 14 -17 15 12 11 22 -2 30 1 27 8 -4 12 146 36 175 28 8 -1 42 -3
77 -3z m-587 -117 c-10 -2 -26 -2 -35 0 -10 3 -2 5 17 5 19 0 27 -2 18 -5z
m200 -2 c9 -5 -7 -12 -45 -19 -105 -20 -166 -25 -159 -14 3 5 33 13 67 17 33
4 73 11 87 15 36 11 35 11 50 1z m465 -8 c-7 -2 -19 -2 -25 0 -7 3 -2 5 12 5
14 0 19 -2 13 -5z m-3327 -31 c-21 -2 -42 0 -47 5 -4 4 13 6 39 3 l47 -5 -39
-3z m661 -958 c-3 -3 -12 -4 -19 -1 -8 3 -5 6 6 6 11 1 17 -2 13 -5z m3060
-326 c-3 -8 -6 -5 -6 6 -1 11 2 17 5 13 3 -3 4 -12 1 -19z m30 0 c-3 -8 -6 -5
-6 6 -1 11 2 17 5 13 3 -3 4 -12 1 -19z m-637 -84 c0 -2 -26 -3 -57 -3 -54 2
-55 2 -18 8 38 6 75 3 75 -5z"/>
<path d="M7198 4013 c-31 -5 -39 -23 -10 -23 9 1 31 7 47 15 31 14 20 17 -37
8z"/>
<path d="M1618 5013 c12 -2 32 -2 45 0 12 2 2 4 -23 4 -25 0 -35 -2 -22 -4z"/>
<path d="M4754 4969 c-3 -6 -15 -9 -25 -6 -12 3 -32 -7 -54 -28 -35 -32 -36
-33 -13 -39 13 -3 60 -1 105 5 45 6 90 9 100 7 10 -3 -19 -8 -64 -12 -85 -8
-114 -26 -43 -26 22 0 40 4 40 10 0 6 48 7 128 3 75 -3 131 -2 135 3 3 5 -22
9 -58 9 -35 0 -67 3 -71 7 -4 5 -1 20 7 35 7 16 15 31 17 36 2 4 -7 7 -20 7
-17 0 -27 -9 -37 -32 -13 -30 -14 -31 -18 -10 -4 18 -11 22 -44 22 -21 0 -39
5 -39 10 0 13 -37 13 -46 -1z"/>
<path d="M3064 4785 l-21 -23 21 -10 c17 -9 8 -11 -44 -11 l-64 -1 35 -18 c41
-21 129 -19 129 4 0 10 12 14 38 14 32 0 38 3 40 23 1 20 -5 26 -37 35 -53 16
-73 14 -97 -13z"/>
<path d="M3280 4740 c0 -11 4 -20 9 -20 11 0 22 26 14 34 -12 12 -23 5 -23
-14z"/>
<path d="M2880 4655 c0 -17 -25 -20 -35 -5 -3 6 -15 10 -26 10 -14 0 -19 -7
-19 -30 0 -19 5 -30 14 -30 26 0 63 18 91 44 l28 26 -27 0 c-16 0 -26 -5 -26
-15z"/>
<path d="M2603 4653 c-24 -2 -43 -9 -43 -14 0 -6 -7 -6 -19 0 -25 14 -77 -6
-89 -34 -10 -22 -9 -22 106 -21 107 1 118 3 139 24 13 13 23 29 23 37 0 15
-19 17 -117 8z"/>
<path d="M2560 4570 c0 -12 37 -12 65 0 15 7 10 9 -22 9 -24 1 -43 -3 -43 -9z"/>
<path d="M2560 4530 c0 -5 7 -10 16 -10 8 0 12 5 9 10 -3 6 -10 10 -16 10 -5
0 -9 -4 -9 -10z"/>
<path d="M5743 4453 c9 -2 23 -2 30 0 6 3 -1 5 -18 5 -16 0 -22 -2 -12 -5z"/>
<path d="M6250 4430 c-19 -7 -12 -8 27 -7 29 1 53 5 53 10 0 9 -48 7 -80 -3z"/>
<path d="M5913 4393 c9 -2 25 -2 35 0 9 3 1 5 -18 5 -19 0 -27 -2 -17 -5z"/>
<path d="M5945 4369 c4 -5 22 -9 42 -9 45 0 40 5 -10 13 -22 3 -35 2 -32 -4z"/>
<path d="M6600 4167 c0 -19 10 -27 26 -20 21 8 17 33 -6 33 -11 0 -20 -6 -20
-13z"/>
<path d="M5563 3443 c9 -2 23 -2 30 0 6 3 -1 5 -18 5 -16 0 -22 -2 -12 -5z"/>
<path d="M8883 3173 c-3 -7 -16 -10 -32 -7 -17 4 -33 0 -42 -9 -8 -8 -26 -18
-39 -22 -35 -11 -100 -64 -100 -81 0 -8 -7 -14 -16 -14 -8 0 -35 -13 -59 -30
-24 -16 -46 -30 -50 -30 -18 0 -114 -53 -119 -65 -3 -8 -15 -15 -26 -15 -12 0
-19 -4 -15 -9 7 -12 -102 -129 -155 -166 -22 -15 -40 -32 -40 -37 0 -5 11 -21
24 -35 28 -30 55 -27 101 12 73 64 125 79 125 37 0 -20 65 -62 98 -62 16 0 20
-9 26 -62 4 -35 11 -67 15 -73 4 -5 4 -28 0 -50 -3 -22 -7 -32 -8 -22 -1 21
-34 23 -51 2 -7 -8 -19 -15 -26 -15 -8 0 -14 -5 -14 -12 0 -9 -3 -9 -12 0 -19
19 -26 15 -33 -18 -8 -35 -32 -39 -79 -15 -15 8 -35 15 -43 15 -7 0 -25 11
-38 25 -18 17 -25 20 -25 9 0 -10 -6 -13 -19 -9 -14 4 -20 -1 -26 -22 -10 -41
-24 -53 -58 -53 -21 0 -41 10 -64 32 l-33 32 -16 -22 c-12 -18 -25 -22 -64
-22 -26 0 -50 5 -52 10 -2 6 -13 12 -25 12 -14 2 -19 7 -15 17 4 12 -3 13 -44
6 -27 -4 -61 -8 -76 -9 -16 -1 -28 -4 -28 -8 0 -5 -8 -8 -18 -8 -10 0 -22 -3
-26 -7 -4 -5 -17 -8 -29 -9 -53 -2 -58 -4 -51 -16 6 -10 4 -10 -7 -2 -17 13
-40 9 -81 -13 -4 -2 -5 3 -2 12 6 14 1 15 -32 9 -51 -11 -106 -6 -132 10 -18
11 -38 -4 -21 -16 10 -7 5 -8 -16 -4 -16 4 -41 8 -55 10 -14 2 -36 7 -50 11
-39 10 -100 22 -150 29 -25 3 -55 8 -66 12 -12 3 -31 1 -43 -5 -17 -10 -21 -9
-21 4 0 19 -19 20 -26 1 -3 -8 -13 -12 -25 -9 -11 3 -37 0 -58 -7 -33 -11 -43
-10 -82 9 -49 24 -81 43 -89 52 -6 8 -96 39 -113 39 -21 0 -88 61 -86 79 2 9
-1 26 -5 39 -7 22 -9 22 -21 5 -12 -17 -14 -16 -34 7 -11 14 -21 28 -22 33 -1
4 -3 12 -4 17 -1 6 -3 15 -4 20 0 6 -10 10 -20 10 -11 0 -26 6 -33 13 -7 8
-31 17 -53 21 -22 4 -60 17 -85 29 -25 11 -67 24 -95 28 -27 4 -96 18 -152 33
-223 56 -378 70 -598 52 -49 -5 -113 -8 -142 -9 -29 0 -50 -4 -47 -9 3 -4 -2
-8 -10 -8 -9 0 -16 -5 -16 -10 0 -7 6 -7 18 -1 14 8 117 17 132 12 3 -1 30 -3
60 -5 30 -1 68 -6 84 -11 21 -6 27 -5 22 4 -5 8 11 10 61 7 97 -6 122 -13 116
-37 -4 -14 0 -19 14 -19 10 0 27 -6 38 -13 29 -20 147 -57 179 -57 19 0 29 -6
33 -20 4 -14 14 -20 32 -20 58 1 138 -13 178 -31 22 -11 61 -22 84 -25 72 -9
242 -72 261 -96 19 -26 8 -48 -23 -48 -10 0 -25 -10 -33 -22 -11 -16 -25 -21
-51 -20 -29 1 -37 -3 -45 -23 -11 -29 -45 -40 -120 -39 -58 0 -140 34 -140 57
0 6 -5 4 -11 -5 -14 -25 -26 -22 -33 7 -9 34 -26 32 -26 -4 0 -28 -1 -29 -62
-34 -50 -4 -66 -1 -76 12 -11 14 -14 14 -22 1 -5 -8 -10 -17 -10 -20 0 -12
-96 3 -103 16 -9 16 -57 19 -57 4 0 -5 -11 -10 -25 -10 -14 0 -25 5 -25 10 0
6 -6 10 -14 10 -8 0 -16 6 -19 13 -3 7 -9 2 -15 -13 -6 -14 -11 -20 -12 -15 0
6 -4 16 -9 24 -8 12 -12 11 -28 -4 -16 -17 -18 -17 -21 -2 -2 11 -13 17 -33
17 -33 0 -126 36 -148 58 -8 8 -23 11 -35 8 -12 -4 -48 -9 -80 -13 -56 -6 -61
-5 -81 21 l-21 27 -29 -23 c-31 -24 -142 -43 -159 -27 -6 5 -17 2 -26 -6 -9
-8 -43 -17 -76 -20 -32 -2 -83 -11 -112 -19 -53 -15 -82 -13 -82 6 0 13 -81 0
-100 -17 -27 -23 -58 -27 -90 -10 -25 13 -29 19 -20 34 10 19 104 116 198 204
28 26 48 47 44 47 -16 0 -110 -61 -147 -95 -22 -20 -68 -63 -103 -95 -75 -70
-122 -135 -122 -172 0 -18 -5 -28 -15 -28 -8 0 -15 -9 -15 -20 0 -11 -7 -23
-15 -26 -8 -4 -12 -10 -9 -15 3 -5 -2 -12 -11 -15 -9 -4 -30 -27 -48 -53 -29
-42 -32 -44 -35 -22 -2 13 2 27 9 31 7 5 9 15 4 26 -5 11 -7 22 -7 27 1 4 -3
7 -8 7 -6 0 -10 -7 -10 -15 0 -8 -3 -15 -8 -15 -4 0 -14 -15 -21 -32 -18 -40
-30 -53 -59 -62 -12 -4 -29 -23 -39 -43 -21 -45 -61 -89 -71 -78 -4 4 -1 10 6
12 6 3 12 11 12 20 0 12 -2 12 -13 1 -39 -40 -67 -107 -33 -78 13 10 13 8 3
-14 -7 -14 -18 -26 -24 -26 -7 0 -13 -7 -13 -15 0 -8 -7 -15 -15 -15 -9 0 -19
-8 -22 -17 -4 -10 -13 -24 -20 -31 -7 -7 -13 -18 -13 -23 0 -14 28 -11 33 4 4
8 6 7 6 -3 1 -20 -27 -62 -64 -96 -17 -15 -30 -31 -30 -35 0 -4 -3 -11 -7 -15
-5 -4 -8 -2 -8 4 0 7 -5 12 -11 12 -7 0 -9 -10 -5 -25 6 -22 3 -25 -18 -25
-23 0 -24 1 -12 26 8 14 11 35 8 47 -3 12 -7 16 -10 9 -2 -7 -8 -9 -14 -6 -5
3 -9 0 -7 -7 4 -35 -2 -59 -16 -59 -8 0 -14 -6 -12 -12 1 -9 -12 -12 -45 -10
-38 2 -47 0 -42 -11 3 -9 -4 -21 -16 -30 -14 -10 -18 -20 -14 -32 5 -13 4 -16
-5 -11 -7 5 -16 19 -21 32 l-9 24 -33 -19 c-35 -20 -115 -39 -88 -21 8 5 21
10 28 10 8 0 27 14 44 30 27 28 56 42 44 21 -3 -4 7 -6 22 -3 19 4 22 7 10 10
-25 5 -22 13 14 42 18 14 41 34 53 46 12 11 27 18 33 16 7 -2 10 2 7 10 -3 7
8 27 24 44 24 25 27 34 18 50 -9 17 -9 18 6 5 15 -12 17 -11 17 3 0 9 8 16 19
16 26 0 52 27 45 45 -4 10 0 15 11 15 10 0 35 18 56 40 24 25 40 35 43 27 3
-7 3 -2 0 10 -3 14 2 29 15 42 12 12 21 24 21 29 0 12 40 33 50 27 6 -3 7 1 4
10 -5 11 0 18 15 22 11 3 21 11 21 18 0 24 30 26 40 2 8 -21 9 -21 9 -2 1 11
8 30 16 42 8 12 12 28 9 36 -6 17 28 41 41 29 3 -4 5 -2 4 3 -5 14 33 55 44
48 5 -3 7 0 5 8 -3 8 -12 13 -21 11 -9 -1 -1 13 20 35 31 34 35 36 44 20 6 -9
15 -15 20 -12 5 4 7 11 4 16 -4 5 -2 9 4 9 6 0 8 6 5 14 -7 18 13 56 28 56 6
0 3 -9 -7 -20 -10 -11 -16 -22 -14 -25 3 -2 27 18 55 45 27 27 55 50 62 50 6
0 12 9 12 20 0 24 41 65 51 49 4 -7 25 7 55 35 27 26 62 54 77 62 15 8 25 19
21 25 -4 7 -10 6 -19 -1 -7 -6 -30 -10 -51 -8 -22 1 -50 -2 -63 -6 -17 -6 -21
-5 -16 3 4 7 -9 5 -32 -4 -72 -31 -84 -35 -78 -26 11 19 -70 -2 -121 -31 -55
-31 -73 -35 -55 -15 6 8 8 16 6 19 -10 9 -91 -1 -136 -16 -55 -20 -60 -20 -53
-1 7 18 -7 20 -24 3 -7 -7 -12 -9 -12 -5 0 3 -21 0 -48 -8 -38 -12 -49 -12
-57 -2 -10 13 -162 13 -195 0 -8 -3 -26 -8 -40 -10 -13 -2 -30 -9 -37 -15 -25
-21 -14 15 14 44 21 22 23 28 10 28 -10 0 -25 -4 -35 -9 -23 -12 -91 -38 -121
-47 -21 -5 -23 -3 -19 14 6 20 5 21 -33 5 -32 -12 -50 -13 -102 -4 -73 13
-143 13 -172 2 -11 -5 -25 -4 -32 1 -7 6 -24 8 -38 6 -28 -6 -32 1 -13 21 11
10 7 11 -17 6 -16 -4 -43 -11 -59 -16 -16 -5 -41 -9 -55 -9 l-26 0 25 20 c31
25 20 25 -88 5 -93 -18 -172 -21 -221 -10 -33 7 -34 8 -16 21 17 13 16 14 -18
14 -20 0 -37 -4 -37 -8 0 -15 -80 -17 -170 -5 l-55 8 82 18 c46 10 83 23 83
28 0 13 -23 11 -125 -10 -57 -12 -105 -17 -130 -12 l-40 6 23 17 c24 16 24 16
3 23 -12 3 -35 3 -52 0 -24 -5 -30 -4 -24 5 6 9 -2 11 -31 6 -24 -4 -58 -1
-89 9 -33 9 -91 15 -167 15 -64 0 -119 4 -122 9 -6 9 -83 22 -151 26 -22 1
-76 7 -120 14 -87 13 -301 38 -405 47 -35 3 -72 10 -82 15 -9 5 -32 9 -51 9
-18 0 -58 7 -87 16 -30 9 -93 17 -141 17 -48 1 -85 5 -82 10 2 4 11 7 20 7 36
0 -1 14 -40 15 -65 2 -216 25 -274 41 -29 9 -63 12 -79 8 -17 -4 -25 -3 -21 3
6 10 -35 23 -69 23 -12 0 -14 -93 -14 -567 0 -371 4 -563 10 -553 6 9 10 10
10 3 0 -6 -5 -15 -10 -18 -6 -4 -10 -214 -10 -598 l0 -593 32 -13 c18 -8 56
-14 83 -13 28 0 39 -2 25 -4 -14 -3 -32 -8 -40 -11 -8 -3 -19 -5 -23 -4 -5 1
-24 -6 -43 -15 l-34 -16 0 -319 0 -319 680 0 c447 0 680 3 680 10 0 6 5 10 11
10 6 0 23 8 37 19 15 10 46 24 70 31 23 7 42 19 42 25 0 14 67 35 126 39 22 2
50 8 61 14 11 6 40 14 64 17 48 7 177 38 250 61 26 8 53 14 62 14 8 0 40 11
71 25 50 22 139 38 229 39 15 1 27 4 27 9 0 4 -12 7 -27 8 -16 0 -37 4 -48 8
-15 6 -9 9 26 12 64 6 79 1 79 -24 0 -16 3 -18 12 -9 7 7 35 13 63 13 l50 2
-40 7 c-35 6 -36 7 -10 9 17 0 46 5 65 10 19 6 68 12 108 15 41 4 81 10 90 16
14 8 14 10 2 10 -34 1 26 30 64 31 32 0 37 2 21 9 -11 5 -137 9 -279 9 -143 1
-256 4 -253 7 4 4 102 11 219 15 117 5 231 10 253 13 85 8 235 38 235 46 0 3
-60 5 -133 5 -107 0 -138 -4 -165 -18 -21 -11 -47 -17 -70 -14 l-37 4 38 1
c23 1 40 8 43 17 4 8 15 15 25 15 10 0 19 5 19 10 0 6 44 10 113 10 76 0 107
3 97 10 -8 5 -46 10 -85 10 -131 1 -124 15 10 20 208 8 696 -6 705 -20 5 -8
27 -10 71 -6 35 3 191 11 347 18 227 10 281 15 271 26 -10 10 21 12 156 14 94
1 179 2 190 3 11 1 108 3 215 4 119 2 187 6 175 11 -11 5 -47 9 -80 10 l-60 2
75 13 c44 7 77 8 81 3 3 -5 25 -4 53 3 59 15 206 7 261 -14 22 -9 33 -16 25
-17 -31 -3 26 -19 70 -19 63 -2 121 -12 115 -21 -3 -5 14 -11 37 -15 24 -4 51
-11 61 -17 15 -8 104 -23 182 -31 17 -2 48 -11 69 -20 25 -11 77 -19 139 -22
55 -2 103 -8 106 -13 3 -5 30 -12 60 -15 30 -4 59 -11 64 -16 18 -18 -4 -31
-51 -31 -26 0 -94 -7 -152 -16 -58 -8 -121 -16 -141 -18 -20 -2 -44 -8 -53
-13 -17 -9 -17 -11 -2 -16 10 -4 15 -3 13 1 -3 4 17 8 43 10 27 1 51 -2 54 -7
9 -13 -21 -20 -72 -17 -24 1 -45 -1 -48 -6 -3 -4 -1 -8 4 -8 16 0 176 -21 200
-26 15 -3 22 -10 19 -18 -4 -11 9 -14 56 -14 34 -1 98 -8 142 -17 121 -25 185
-33 185 -23 0 4 18 8 40 8 27 0 40 -4 40 -14 0 -8 15 -16 38 -20 80 -14 122
-30 122 -48 0 -22 5 -25 73 -33 53 -7 57 -6 57 13 0 20 24 32 68 32 16 0 22
-6 22 -20 0 -12 6 -20 13 -19 27 3 33 -2 34 -35 1 -26 -4 -35 -18 -39 -10 -3
-19 -10 -19 -16 0 -12 58 -4 76 11 8 5 13 1 17 -12 4 -16 13 -20 51 -20 25 0
46 -4 46 -10 0 -15 177 -13 184 3 5 10 7 10 12 0 4 -9 33 -13 94 -13 61 0 90
4 93 13 4 10 6 10 6 0 1 -10 45 -13 186 -13 159 0 188 2 204 17 22 18 51 26
51 13 0 -4 -10 -11 -22 -16 -15 -5 14 -9 87 -11 70 -3 111 0 113 7 5 13 32 13
32 0 0 -16 80 -12 97 5 12 12 13 19 3 30 -7 8 -19 15 -26 15 -22 0 -17 30 8
50 19 15 20 20 9 33 -7 9 -10 20 -7 26 3 5 0 11 -6 14 -10 3 -9 8 2 22 8 10
15 21 15 24 0 10 39 1 46 -11 5 -7 20 -8 45 -3 l39 9 -35 6 -35 7 30 13 c35
15 57 14 68 -6 4 -8 16 -14 25 -14 10 0 22 -4 27 -9 17 -15 189 -20 208 -6 14
10 33 8 100 -11 85 -24 123 -28 176 -18 l31 7 0 288 c0 224 -3 289 -12 289 -7
1 -62 3 -123 5 -60 2 -124 7 -141 10 -24 5 -33 3 -37 -9 -5 -13 2 -16 44 -16
29 0 48 -4 44 -9 -6 -10 -146 -3 -155 8 -12 15 -58 29 -70 21 -8 -5 -4 -11 16
-18 27 -11 26 -11 -11 -5 -47 7 -57 11 -50 22 6 11 -60 21 -107 17 -21 -2 -38
0 -38 4 0 4 -37 8 -82 9 -57 1 -78 -2 -68 -9 13 -8 12 -10 -3 -10 -10 0 -28 5
-39 11 -15 8 -19 8 -13 0 5 -9 -7 -11 -42 -7 -28 2 -56 0 -64 -5 -12 -7 -12
-9 1 -9 13 0 13 -1 0 -10 -20 -12 -142 0 -158 17 -20 19 -42 16 -42 -7 0 -13
-5 -18 -16 -13 -8 3 -59 11 -112 19 -65 8 -80 12 -47 12 71 -1 75 0 69 17 -4
8 -10 13 -14 10 -5 -3 -33 -6 -62 -6 -29 -1 -55 -4 -58 -8 -3 -3 -30 -1 -60 5
-30 7 -48 13 -40 13 13 1 13 3 1 10 -15 10 -44 3 -36 -8 2 -4 -40 -8 -93 -8
-53 0 -84 3 -67 6 l30 6 -38 12 c-20 6 -39 7 -42 3 -3 -4 -31 -6 -64 -3 -51 5
-60 3 -73 -15 -10 -15 -18 -18 -28 -11 -13 7 -12 9 3 9 27 0 20 15 -8 16 -39
3 -78 14 -71 21 10 10 36 12 36 3 0 -9 110 -5 150 5 19 5 22 4 10 -4 -11 -8
-1 -10 41 -10 31 1 66 -2 78 -6 12 -3 21 -2 21 4 0 5 -10 12 -22 14 -13 2 0 2
27 0 28 -2 77 -6 110 -8 33 -2 61 -8 63 -14 4 -13 32 -15 32 -2 0 5 -6 12 -12
15 -15 5 18 37 36 35 6 0 5 -3 -1 -6 -7 -2 -13 -11 -13 -19 0 -10 13 -14 53
-13 28 1 41 4 27 6 -40 7 -48 23 -13 23 18 0 35 -4 38 -10 8 -13 75 -13 75 -1
0 13 52 23 112 23 26 0 48 4 48 9 0 5 5 9 11 9 5 0 7 -5 3 -11 -5 -9 1 -10 22
-4 16 4 71 9 123 11 51 1 100 5 107 8 20 8 75 -5 68 -15 -7 -13 36 -21 87 -16
40 3 38 4 -14 5 -36 1 -56 6 -52 12 8 13 167 13 220 0 60 -15 216 -22 230 -10
6 5 26 8 43 5 18 -2 32 0 32 5 0 5 13 5 29 0 16 -4 44 -4 62 0 33 8 33 8 5 9
-21 1 -27 5 -22 16 3 8 0 15 -6 15 -6 0 -8 3 -5 6 4 4 18 -1 31 -10 14 -9 29
-16 33 -16 4 0 1 5 -7 10 -12 8 -10 10 10 11 23 0 23 1 5 8 -16 7 -12 10 22
15 l43 8 0 1104 0 1105 -56 -3 c-32 -2 -58 -8 -61 -15z m-103 -538 c13 -13 23
-36 23 -50 0 -20 2 -23 13 -14 11 9 14 9 14 0 0 -6 -7 -14 -15 -17 -8 -4 -15
-17 -15 -30 0 -13 -4 -24 -10 -24 -5 0 -10 6 -10 12 0 7 -11 -4 -25 -25 -14
-20 -33 -37 -43 -36 -10 0 -12 3 -4 6 23 9 12 31 -18 38 -16 4 -30 11 -30 16
0 5 -5 9 -11 9 -6 0 -8 -7 -5 -16 3 -8 2 -12 -4 -9 -6 3 -7 18 -4 33 4 20 3
23 -5 12 -11 -16 -12 -16 -29 23 -15 34 -16 87 -2 87 6 0 10 -18 10 -40 0 -22
5 -40 10 -40 6 0 10 11 10 24 0 45 10 56 51 56 21 0 39 4 39 9 0 15 37 0 60
-24z m-4526 -110 c-14 -19 -28 -35 -29 -35 -2 0 -11 -3 -20 -7 -10 -3 2 12 26
35 24 23 45 42 47 42 2 0 -9 -16 -24 -35z m4563 -17 c-3 -8 -6 -5 -6 6 -1 11
2 17 5 13 3 -3 4 -12 1 -19z m-4784 -203 c-3 -9 -8 -13 -11 -11 -3 3 -11 -2
-18 -12 -8 -9 -14 -12 -14 -5 0 6 10 19 22 27 28 20 29 20 21 1z m-310 -110
c-3 -9 -8 -14 -10 -11 -3 3 -2 9 2 15 9 16 15 13 8 -4z m-18 -39 c11 -17 13
-29 6 -47 -10 -24 -10 -24 -10 -1 -1 33 -20 27 -75 -25 -50 -49 -45 -33 7 21
16 16 33 40 38 53 11 29 15 29 34 -1z m-296 -3 c-31 -39 -97 -98 -112 -99 -11
-1 -14 3 -9 11 11 19 68 65 81 65 6 0 16 9 23 20 7 11 17 20 22 20 4 0 2 -8
-5 -17z m-3338 -130 c-12 -20 -14 -14 -5 12 4 9 9 14 11 11 3 -2 0 -13 -6 -23z
m3898 -19 c-14 -18 -24 -11 -15 11 3 9 11 13 16 10 8 -5 7 -11 -1 -21z m-3934
-52 c-15 -16 -16 -15 -4 12 7 15 15 23 17 16 3 -7 -3 -19 -13 -28z m3905 23
c10 -12 10 -15 -4 -15 -9 0 -16 7 -16 15 0 8 2 15 4 15 2 0 9 -7 16 -15z
m-3683 -99 c-8 -9 -25 -16 -36 -16 -12 0 -21 -5 -21 -11 0 -17 -33 -6 -35 12
-2 11 3 15 14 12 9 -2 28 7 41 20 20 19 28 21 39 11 12 -11 12 -15 -2 -28z
m132 -3 c-5 -21 -9 -41 -9 -45 0 -5 -5 -8 -11 -8 -6 0 -8 9 -3 23 22 72 38 92
23 30z m2353 -26 c-3 -10 -10 -16 -18 -13 -20 8 -17 -7 8 -39 l22 -28 -23 -18
c-18 -15 -19 -19 -7 -19 9 0 16 -5 16 -11 0 -7 -12 -9 -35 -5 -25 5 -35 3 -35
-6 0 -9 -3 -9 -10 2 -7 10 -10 11 -10 2 0 -8 -8 -10 -24 -6 -15 3 -29 0 -37
-9 -12 -12 -15 -12 -27 2 -7 9 -11 11 -8 4 4 -6 2 -14 -4 -18 -5 -3 -10 -1
-10 4 0 6 -7 11 -16 11 -8 0 -12 -4 -9 -10 8 -14 -11 -13 -34 2 -15 9 -28 6
-70 -15 -29 -14 -51 -20 -48 -14 2 7 13 16 25 22 23 10 30 25 12 25 -7 0 -7 6
-2 18 5 9 7 23 5 30 -3 6 0 12 6 12 6 0 10 -6 8 -12 -1 -7 5 -13 13 -13 8 0
18 -4 21 -8 4 -5 19 -2 35 6 16 8 35 12 42 10 6 -3 12 3 12 13 0 17 1 17 13 0
10 -14 21 -17 45 -11 30 6 45 25 21 25 -5 0 -7 5 -4 10 3 6 11 10 17 10 6 0 9
-3 5 -6 -3 -3 -1 -12 6 -19 14 -15 47 -8 47 11 0 8 4 14 10 14 5 0 9 8 8 18
-3 35 2 48 21 48 13 0 17 -6 13 -19z m-2572 -13 c0 -7 -55 -54 -91 -77 -16
-11 -29 -14 -29 -8 0 6 10 16 22 22 13 7 36 25 51 41 26 26 47 36 47 22z
m2507 -29 c-4 -8 -12 -15 -19 -14 -10 0 -10 2 0 6 6 2 12 12 12 21 0 8 3 13 6
9 4 -3 4 -13 1 -22z m-2130 -7 c-3 -8 -6 -5 -6 6 -1 11 2 17 5 13 3 -3 4 -12
1 -19z m3318 2 c-3 -5 -10 -10 -16 -10 -5 0 -9 5 -9 10 0 6 7 10 16 10 8 0 12
-4 9 -10z m-2720 -20 c-3 -5 -11 -10 -16 -10 -6 0 -7 5 -4 10 3 6 11 10 16 10
6 0 7 -4 4 -10z m1335 6 c0 -2 -8 -10 -17 -17 -16 -13 -17 -12 -4 4 13 16 21
21 21 13z m-2123 -28 c-3 -8 -6 -5 -6 6 -1 11 2 17 5 13 3 -3 4 -12 1 -19z
m3458 2 c6 -10 -17 -40 -31 -40 -5 0 -3 5 3 11 6 6 9 18 6 25 -6 16 13 19 22
4z m-3138 -60 c-1 -28 -7 -50 -13 -50 -19 0 -23 11 -12 43 5 18 11 38 14 45 8
26 13 10 11 -38z m2102 37 c15 -19 2 -29 -15 -12 -8 7 -14 16 -14 19 0 11 17
6 29 -7z m126 -21 c10 4 15 0 15 -15 0 -25 7 -26 32 -4 18 16 19 16 25 -5 7
-27 49 -31 56 -4 3 9 5 2 6 -15 1 -32 22 -46 35 -24 8 13 43 2 50 -15 3 -9 -1
-14 -14 -14 -13 0 -18 -5 -14 -15 4 -8 1 -15 -5 -15 -7 0 -14 7 -18 16 -4 11
-8 12 -13 4 -6 -9 -13 -9 -29 -1 -12 7 -25 9 -30 6 -5 -3 -7 5 -3 17 5 20 4
21 -11 9 -9 -7 -23 -11 -31 -8 -8 3 -17 3 -20 -1 -4 -3 -15 -7 -26 -9 -21 -3
-27 11 -10 22 15 9 -1 36 -19 31 -9 -3 -23 -1 -31 5 -12 9 -11 10 8 6 15 -4
22 0 22 10 0 8 -5 11 -10 8 -16 -10 -50 5 -50 21 0 12 5 12 35 0 20 -9 42 -13
50 -10z m-1805 -7 c-7 -11 -14 -18 -17 -15 -3 3 0 12 7 21 18 21 23 19 10 -6z
m-244 -32 c17 6 18 -1 4 -28 -14 -25 -26 -24 -33 3 -6 23 4 51 10 31 3 -7 11
-9 19 -6z m1614 4 c0 -5 3 -16 6 -24 4 -12 0 -14 -15 -10 -17 4 -20 2 -14 -12
5 -15 2 -17 -15 -13 -14 4 -22 2 -22 -7 0 -15 -22 -25 -56 -25 -13 0 -24 -3
-24 -7 0 -5 -18 -8 -40 -8 -27 -1 -40 3 -40 13 0 16 29 47 37 39 3 -3 12 0 20
8 10 11 20 12 40 4 18 -7 30 -6 37 1 5 5 18 10 28 10 9 0 22 9 28 20 11 20 30
27 30 11z m-1411 -40 c-13 -17 -27 -31 -32 -31 -5 0 -7 -6 -4 -13 4 -11 -5
-11 -45 -3 -50 10 -50 10 -28 28 28 23 46 23 54 1 6 -14 12 -10 38 21 36 44
50 41 17 -3z m682 0 c18 -18 29 -40 29 -56 0 -24 2 -26 15 -15 12 10 21 10 40
2 15 -7 25 -8 25 -2 0 17 28 11 43 -10 8 -11 17 -18 20 -15 4 3 4 0 -1 -5 -18
-23 -401 -32 -387 -10 4 6 -9 10 -29 10 -19 0 -38 -5 -41 -10 -4 -6 -13 -7
-23 -2 -9 5 -49 8 -89 8 -39 -1 -69 2 -67 6 3 4 -1 6 -8 3 -7 -3 -42 -9 -78
-14 -55 -7 -71 -6 -102 10 -38 19 -57 39 -39 39 6 0 11 7 11 16 0 13 3 14 15
4 8 -6 31 -13 52 -14 21 -1 43 -5 49 -8 16 -10 74 -1 100 17 21 14 24 13 39
-7 20 -29 72 -34 80 -7 5 14 16 19 45 19 21 0 42 -4 45 -10 3 -5 15 -10 26
-10 10 0 19 -5 19 -11 0 -6 9 -9 20 -6 10 3 21 0 24 -7 3 -8 7 -7 14 2 13 19
16 19 35 3 9 -7 24 -10 33 -7 13 5 14 9 4 21 -11 13 -10 14 5 9 15 -6 17 -3
13 14 -4 12 -2 22 3 22 5 0 11 11 15 25 3 14 8 25 11 25 2 0 18 -13 34 -29z
m-1381 -30 c-5 -9 -11 -24 -14 -33 -3 -10 -14 -18 -25 -18 -11 0 -24 -6 -28
-12 -4 -7 -17 -14 -28 -15 -20 -1 -20 -1 -1 13 11 8 23 14 26 14 4 0 12 18 19
39 6 23 19 41 29 43 22 5 33 -11 22 -31z m433 32 c-7 -2 -19 -2 -25 0 -7 3 -2
5 12 5 14 0 19 -2 13 -5z m1389 -9 c10 -5 19 -24 20 -44 2 -29 0 -34 -14 -32
-11 2 -18 -3 -18 -14 0 -10 -3 -15 -6 -11 -4 3 -20 -1 -37 -9 -39 -21 -145
-11 -127 11 9 11 7 12 -9 8 -12 -3 -21 -1 -21 6 0 6 13 11 29 11 17 0 33 5 36
10 3 6 14 10 23 10 15 0 15 -2 2 -11 -12 -9 -12 -10 3 -5 10 3 23 6 28 6 6 0
7 5 4 10 -3 6 -2 10 4 10 6 0 8 6 5 14 -3 9 3 17 15 21 12 3 21 10 21 15 0 10
19 8 42 -6z m1093 -4 c4 -6 -7 -10 -27 -9 -27 0 -30 2 -13 9 27 12 33 12 40 0z
m40 0 c3 -6 -1 -7 -9 -4 -18 7 -21 14 -7 14 6 0 13 -4 16 -10z m-2532 -7 c-7
-2 -19 -2 -25 0 -7 3 -2 5 12 5 14 0 19 -2 13 -5z m2734 1 c-3 -3 -12 -4 -19
-1 -8 3 -5 6 6 6 11 1 17 -2 13 -5z m-373 -30 c3 -8 2 -12 -4 -9 -6 3 -10 10
-10 16 0 14 7 11 14 -7z m-913 -17 c-10 -9 -11 -8 -5 6 3 10 9 15 12 12 3 -3
0 -11 -7 -18z m-2031 -12 c-7 -9 -15 -13 -17 -11 -7 7 7 26 19 26 6 0 6 -6 -2
-15z m2940 -6 c0 -4 8 -6 18 -2 9 3 14 3 10 -1 -3 -4 -12 -8 -20 -10 -7 -1
-18 -4 -23 -8 -6 -4 -12 4 -13 17 -1 18 2 23 13 19 8 -4 15 -10 15 -15z m74
-1 c-3 -4 -9 -8 -15 -8 -5 0 -9 4 -9 8 0 5 7 9 15 9 8 0 12 -4 9 -9z m206 3
c0 -12 -28 -22 -34 -12 -3 5 -3 11 1 15 9 9 33 7 33 -3z m-2040 -71 c0 -5 -4
-10 -9 -10 -6 0 -13 5 -16 10 -3 6 1 10 9 10 9 0 16 -4 16 -10z m65 -15 c0
-13 -8 -18 -32 -19 -17 -1 -29 2 -26 7 2 4 11 7 19 7 8 0 14 7 14 16 0 9 6 14
13 12 6 -3 12 -13 12 -23z m-215 -2 c0 -14 -2 -15 -9 -4 -5 7 -13 11 -18 8 -5
-3 -15 -2 -23 4 -11 6 -6 9 18 9 24 0 32 -4 32 -17z m35 -13 c-3 -5 -12 -10
-18 -10 -7 0 -6 4 3 10 19 12 23 12 15 0z m75 0 c3 -1 -6 -5 -18 -11 -24 -9
-42 -5 -42 11 0 7 34 7 60 0z m7573 -397 c-7 -2 -19 -2 -25 0 -7 3 -2 5 12 5
14 0 19 -2 13 -5z m74 -9 c-3 -3 -12 -4 -19 -1 -8 3 -5 6 6 6 11 1 17 -2 13
-5z m-407 -134 c0 -5 -4 -10 -10 -10 -5 0 -10 5 -10 10 0 6 5 10 10 10 6 0 10
-4 10 -10z m-1050 -32 c0 -5 -14 -8 -31 -8 -16 0 -28 4 -25 9 7 11 56 9 56 -1z
m-703 -4 c-3 -3 -12 -4 -19 -1 -8 3 -5 6 6 6 11 1 17 -2 13 -5z m120 0 c-3 -3
-12 -4 -19 -1 -8 3 -5 6 6 6 11 1 17 -2 13 -5z m33 -24 c20 -6 21 -8 5 -8 -11
0 -29 3 -40 8 -25 11 1 11 35 0z m277 -46 c-3 -3 -12 -4 -19 -1 -8 3 -5 6 6 6
11 1 17 -2 13 -5z m248 -24 c-3 -5 -14 -10 -23 -10 -15 0 -15 2 -2 10 20 13
33 13 25 0z m608 -17 c-7 -2 -21 -2 -30 0 -10 3 -4 5 12 5 17 0 24 -2 18 -5z
m780 -20 c-7 -2 -19 -2 -25 0 -7 3 -2 5 12 5 14 0 19 -2 13 -5z m-393 -17 c0
-2 -7 -7 -16 -10 -8 -3 -12 -2 -9 4 6 10 25 14 25 6z m-333 -12 c-3 -3 -12 -4
-19 -1 -8 3 -5 6 6 6 11 1 17 -2 13 -5z m88 -4 c13 -6 15 -9 5 -9 -8 0 -22 4
-30 9 -18 12 -2 12 25 0z m-7860 -45 c6 -2 -11 -4 -37 -4 -27 -1 -48 3 -48 7
0 7 62 5 85 -3z m121 -1 c18 -14 18 -15 1 -10 -47 15 -65 17 -71 7 -11 -17
-36 -13 -30 4 8 20 74 20 100 -1z m8134 7 c0 -5 -9 -7 -20 -4 -11 3 -20 7 -20
9 0 2 9 4 20 4 11 0 20 -4 20 -9z m40 -1 c0 -5 -4 -10 -10 -10 -5 0 -10 5 -10
10 0 6 5 10 10 10 6 0 10 -4 10 -10z m-8633 -56 c-3 -3 -12 -4 -19 -1 -8 3 -5
6 6 6 11 1 17 -2 13 -5z m213 2 c0 -2 -7 -6 -15 -10 -8 -3 -15 -1 -15 4 0 6 7
10 15 10 8 0 15 -2 15 -4z m-87 -23 c-7 -2 -21 -2 -30 0 -10 3 -4 5 12 5 17 0
24 -2 18 -5z m2644 -99 c-3 -3 -12 -4 -19 -1 -8 3 -5 6 6 6 11 1 17 -2 13 -5z
m3636 -61 c-13 -2 -33 -2 -45 0 -13 2 -3 4 22 4 25 0 35 -2 23 -4z m-3670 -20
c-7 -2 -21 -2 -30 0 -10 3 -4 5 12 5 17 0 24 -2 18 -5z m5321 -154 c-3 -5 -16
-9 -30 -9 -27 0 -38 -18 -43 -72 -1 -5 -14 -8 -29 -8 -15 0 -33 -5 -40 -12
-15 -15 -26 -4 -19 17 4 8 16 15 27 15 18 0 25 11 21 34 -1 5 5 6 14 3 8 -4
15 -2 15 4 0 5 -7 12 -15 15 -28 11 -15 23 28 26 51 4 79 -1 71 -13z m-1470
-39 c-5 -5 -20 -7 -33 -3 l-23 6 23 13 c26 14 51 2 33 -16z m903 14 c-3 -3
-12 -4 -19 -1 -8 3 -5 6 6 6 11 1 17 -2 13 -5z m650 -11 c-16 -4 -17 -6 -3
-16 20 -15 9 -32 -26 -40 -29 -8 -48 7 -23 17 18 7 20 32 3 39 -7 3 5 5 27 5
22 0 32 -2 22 -5z m-599 -19 c2 -1 -22 -6 -53 -9 -60 -8 -83 -1 -44 14 20 7
86 4 97 -5z m-588 -46 c0 -6 -7 -7 -16 -4 -9 3 -22 6 -30 6 -8 0 -14 4 -14 8
0 5 14 7 30 4 17 -2 30 -9 30 -14z m49 -84 c-10 -13 -39 -20 -39 -10 0 2 -3
11 -6 19 -7 18 25 28 44 14 9 -7 9 -13 1 -23z m461 -44 c0 -5 -5 -10 -11 -10
-5 0 -7 5 -4 10 3 6 8 10 11 10 2 0 4 -4 4 -10z"/>
<path d="M8706 2522 c-3 -6 -1 -14 5 -17 14 -9 20 -2 10 14 -6 8 -11 9 -15 3z"/>
<path d="M1706 1595 c4 -8 8 -15 10 -15 2 0 4 7 4 15 0 8 -4 15 -10 15 -5 0
-7 -7 -4 -15z"/>
<path d="M2155 1590 c-11 -5 -14 -9 -7 -9 7 -1 10 -5 7 -11 -3 -5 -1 -10 4
-10 6 0 11 4 11 10 0 5 7 7 16 3 11 -4 15 -2 12 7 -6 18 -18 21 -43 10z"/>
<path d="M5498 3173 c7 -3 16 -2 19 1 4 3 -2 6 -13 5 -11 0 -14 -3 -6 -6z"/>
<path d="M5417 3148 c21 -7 44 -7 70 0 36 9 34 10 -32 10 -62 0 -66 -1 -38
-10z"/>
<path d="M5025 2860 c-3 -5 1 -10 10 -10 9 0 13 5 10 10 -3 6 -8 10 -10 10 -2
0 -7 -4 -10 -10z"/>
<path d="M4845 2824 c-75 -25 -198 -84 -191 -91 2 -2 21 3 42 12 22 10 93 32
160 50 67 18 130 37 140 43 37 22 -78 11 -151 -14z"/>
<path d="M1608 2793 c6 -2 18 -2 25 0 6 3 1 5 -13 5 -14 0 -19 -2 -12 -5z"/>
<path d="M8176 2713 c-6 -14 -5 -15 5 -6 7 7 10 15 7 18 -3 3 -9 -2 -12 -12z"/>
<path d="M6470 2701 c0 -22 4 -26 41 -35 21 -5 28 -2 32 14 4 15 0 20 -15 20
-10 0 -28 5 -39 10 -16 9 -19 7 -19 -9z"/>
<path d="M6624 2665 c-7 -17 4 -37 16 -30 7 4 23 -30 22 -46 -1 -3 10 -4 23
-1 17 3 35 -4 55 -22 18 -14 37 -26 43 -26 7 1 2 9 -10 19 -15 12 -20 25 -16
40 3 11 9 18 14 15 5 -3 9 -1 9 4 0 11 -37 30 -70 36 -14 2 -38 9 -53 15 -22
9 -29 8 -33 -4z"/>
<path d="M6535 2510 c-3 -6 1 -7 9 -4 18 7 21 14 7 14 -6 0 -13 -4 -16 -10z"/>
<path d="M6712 2440 c-9 -15 -7 -17 14 -17 13 0 24 5 24 12 0 21 -26 24 -38 5z"/>
<path d="M3845 2070 c-3 -5 -1 -10 4 -10 6 0 11 5 11 10 0 6 -2 10 -4 10 -3 0
-8 -4 -11 -10z"/>
<path d="M3696 1895 c-16 -12 -17 -15 -4 -15 24 0 48 11 48 21 0 13 -23 10
-44 -6z"/>
<path d="M3648 1859 c-10 -6 -18 -22 -18 -37 l1 -27 17 28 c9 15 22 27 29 27
7 0 13 5 13 10 0 13 -20 12 -42 -1z"/>
<path d="M3585 1790 c-10 -11 -15 -20 -11 -20 11 0 39 30 34 36 -3 2 -13 -5
-23 -16z"/>
<path d="M8958 923 c7 -3 16 -2 19 1 4 3 -2 6 -13 5 -11 0 -14 -3 -6 -6z"/>
<path d="M8000 899 c0 -5 5 -7 10 -4 6 3 10 8 10 11 0 2 -4 4 -10 4 -5 0 -10
-5 -10 -11z"/>
<path d="M8070 870 c0 -12 34 -12 70 0 20 7 16 8 -22 9 -27 1 -48 -3 -48 -9z"/>
<path d="M8604 869 c-5 -8 1 -10 19 -7 15 3 24 1 21 -3 -3 -5 2 -9 10 -9 10 0
13 6 10 15 -7 18 -50 20 -60 4z"/>
<path d="M7873 863 c9 -2 25 -2 35 0 9 3 1 5 -18 5 -19 0 -27 -2 -17 -5z"/>
<path d="M8698 863 c7 -3 16 -2 19 1 4 3 -2 6 -13 5 -11 0 -14 -3 -6 -6z"/>
<path d="M7995 810 c-7 -23 -16 -25 -33 -8 -9 9 -12 8 -12 -6 0 -15 5 -17 31
-12 17 3 37 6 43 7 6 0 2 4 -9 9 -16 7 -12 9 20 9 30 1 36 4 25 11 -26 17 -58
11 -65 -10z"/>
<path d="M8088 813 c7 -3 16 -2 19 1 4 3 -2 6 -13 5 -11 0 -14 -3 -6 -6z"/>
<path d="M7805 800 l-30 -8 33 -1 c17 0 32 4 32 9 0 6 -1 9 -2 9 -2 -1 -16 -5
-33 -9z"/>
<path d="M8538 803 c7 -3 16 -2 19 1 4 3 -2 6 -13 5 -11 0 -14 -3 -6 -6z"/>
<path d="M8637 784 c-8 -8 1 -24 14 -24 5 0 9 7 9 15 0 15 -12 20 -23 9z"/>
<path d="M0 660 c0 -5 5 -10 10 -10 6 0 10 5 10 10 0 6 -4 10 -10 10 -5 0 -10
-4 -10 -10z"/>
<path d="M4050 576 c0 -2 7 -6 15 -10 8 -3 15 -1 15 4 0 6 -7 10 -15 10 -8 0
-15 -2 -15 -4z"/>
<path d="M3666 535 c-22 -17 -17 -18 44 -15 37 2 68 20 35 20 -11 0 -29 2 -40
5 -11 3 -29 -2 -39 -10z"/>
<path d="M3091 516 c11 -10 109 -16 109 -6 0 6 -24 10 -57 10 -31 0 -54 -2
-52 -4z"/>
<path d="M3680 480 c0 -5 24 -10 53 -10 37 0 48 3 37 10 -20 13 -90 13 -90 0z"/>
<path d="M2968 473 c7 -3 16 -2 19 1 4 3 -2 6 -13 5 -11 0 -14 -3 -6 -6z"/>
<path d="M3128 423 c7 -3 16 -2 19 1 4 3 -2 6 -13 5 -11 0 -14 -3 -6 -6z"/>
<path d="M2968 397 c-7 -8 -19 -12 -26 -9 -17 5 -62 -6 -62 -17 0 -4 33 -8 72
-9 71 0 87 6 88 36 0 16 -55 16 -72 -1z"/>
<path d="M8365 190 c-22 -4 -36 -8 -32 -9 4 0 2 -11 -5 -23 -7 -13 -11 -31 -9
-40 1 -10 -2 -18 -8 -18 -6 0 0 -15 12 -34 17 -25 25 -31 35 -23 8 6 11 20 8
33 -8 30 5 37 32 18 23 -16 30 -58 12 -69 -24 -15 -6 -25 44 -25 34 0 57 5 60
13 5 9 7 9 12 0 3 -8 26 -13 60 -13 l54 0 0 53 c0 37 3 48 10 37 14 -21 45 0
45 31 0 20 -5 24 -30 24 -22 0 -33 -6 -40 -22 -5 -13 -15 -23 -22 -23 -7 0
-13 -5 -13 -10 0 -6 -16 -18 -35 -27 -34 -16 -36 -16 -50 4 -10 14 -22 19 -39
16 -18 -4 -26 0 -31 16 -3 11 -4 25 0 31 5 8 -21 73 -28 69 -1 -1 -20 -5 -42
-9z m253 -138 c3 -9 -2 -13 -14 -10 -9 1 -19 9 -22 16 -3 9 2 13 14 10 9 -1
19 -9 22 -16z"/>
<path d="M6600 160 c0 -5 5 -10 11 -10 5 0 7 5 4 10 -3 6 -8 10 -11 10 -2 0
-4 -4 -4 -10z"/>
<path d="M6675 160 c-3 -5 1 -10 9 -10 9 0 16 5 16 10 0 6 -4 10 -9 10 -6 0
-13 -4 -16 -10z"/>
<path d="M8965 120 c-3 -5 -19 -10 -35 -10 -16 0 -35 -7 -44 -15 -9 -9 -17
-11 -21 -5 -16 25 -30 9 -27 -30 4 -35 2 -40 -17 -40 -12 0 -21 -4 -21 -10 0
-5 23 -10 50 -10 28 0 50 5 50 10 0 6 7 10 15 10 8 0 15 -4 15 -10 0 -5 15
-10 33 -10 l33 0 1 65 c0 47 -3 65 -13 65 -7 0 -16 -4 -19 -10z"/>
<path d="M6901 106 c-15 -17 -2 -27 27 -20 12 4 19 11 15 20 -7 18 -27 18 -42
0z"/>
<path d="M8720 110 c0 -5 5 -10 11 -10 5 0 7 5 4 10 -3 6 -8 10 -11 10 -2 0
-4 -4 -4 -10z"/>
<path d="M8720 80 c0 -5 5 -10 10 -10 6 0 10 5 10 10 0 6 -4 10 -10 10 -5 0
-10 -4 -10 -10z"/>
<path d="M6785 70 c-3 -5 -2 -10 4 -10 5 0 13 5 16 10 3 6 2 10 -4 10 -5 0
-13 -4 -16 -10z"/>
<path d="M6868 73 c-24 -6 -23 -19 1 -26 24 -6 46 7 37 22 -7 11 -10 12 -38 4z"/>
<path d="M8330 10 c0 -5 7 -10 15 -10 8 0 15 5 15 10 0 6 -7 10 -15 10 -8 0
-15 -4 -15 -10z"/>
<path d="M8690 10 c0 -5 9 -10 20 -10 11 0 20 5 20 10 0 6 -9 10 -20 10 -11 0
-20 -4 -20 -10z"/>
</g>
</svg>
